<mxfile host="Electron" agent="Mozilla/5.0 (Macintosh; Intel Mac OS X 10_15_7) AppleWebKit/537.36 (KHTML, like Gecko) draw.io/26.0.4 Chrome/128.0.6613.186 Electron/32.2.5 Safari/537.36" version="26.0.4">
  <diagram id="C5RBs43oDa-KdzZeNtuy" name="Page-1">
    <mxGraphModel dx="539" dy="813" grid="1" gridSize="10" guides="1" tooltips="1" connect="1" arrows="1" fold="1" page="1" pageScale="1" pageWidth="827" pageHeight="1169" math="0" shadow="0">
      <root>
        <mxCell id="WIyWlLk6GJQsqaUBKTNV-0" />
        <mxCell id="WIyWlLk6GJQsqaUBKTNV-1" parent="WIyWlLk6GJQsqaUBKTNV-0" />
        <mxCell id="KsU-oVDJiNAYJk19QjAR-104" value="POST /auth/123456" style="shape=table;childLayout=tableLayout;startSize=40;collapsible=0;recursiveResize=0;expand=0;" parent="WIyWlLk6GJQsqaUBKTNV-1" vertex="1">
          <mxGeometry x="910" y="30" width="1020" height="850" as="geometry" />
        </mxCell>
        <mxCell id="KsU-oVDJiNAYJk19QjAR-107" value="Client" style="shape=tableRow;horizontal=0;swimlaneHead=0;swimlaneBody=0;top=0;left=0;strokeColor=inherit;bottom=0;right=0;dropTarget=0;fontStyle=0;fillColor=none;points=[[0,0.5],[1,0.5]];portConstraint=eastwest;startSize=40;collapsible=0;recursiveResize=0;expand=0;" parent="KsU-oVDJiNAYJk19QjAR-104" vertex="1">
          <mxGeometry y="40" width="1020" height="162" as="geometry" />
        </mxCell>
        <mxCell id="KsU-oVDJiNAYJk19QjAR-108" value="" style="swimlane;swimlaneHead=0;swimlaneBody=0;fontStyle=0;connectable=0;strokeColor=inherit;fillColor=none;startSize=0;collapsible=0;recursiveResize=0;expand=0;" parent="KsU-oVDJiNAYJk19QjAR-107" vertex="1">
          <mxGeometry x="40" width="980" height="162" as="geometry">
            <mxRectangle width="980" height="162" as="alternateBounds" />
          </mxGeometry>
        </mxCell>
        <mxCell id="Q2JHpyXK3tvcLyVBupTh-7" value="Request" style="strokeWidth=2;html=1;shape=mxgraph.flowchart.start_1;whiteSpace=wrap;" parent="KsU-oVDJiNAYJk19QjAR-108" vertex="1">
          <mxGeometry x="30" y="46" width="100" height="70" as="geometry" />
        </mxCell>
        <mxCell id="HGcjKGALSTUR5RTaQ5zP-2" value="400:&lt;div&gt;Bad Request&lt;/div&gt;" style="strokeWidth=2;html=1;shape=mxgraph.flowchart.terminator;whiteSpace=wrap;" vertex="1" parent="KsU-oVDJiNAYJk19QjAR-108">
          <mxGeometry x="192" y="51" width="100" height="60" as="geometry" />
        </mxCell>
        <mxCell id="HGcjKGALSTUR5RTaQ5zP-38" value="404:&lt;div&gt;Not Found&lt;/div&gt;" style="strokeWidth=2;html=1;shape=mxgraph.flowchart.terminator;whiteSpace=wrap;" vertex="1" parent="KsU-oVDJiNAYJk19QjAR-108">
          <mxGeometry x="352" y="51" width="100" height="60" as="geometry" />
        </mxCell>
        <mxCell id="HGcjKGALSTUR5RTaQ5zP-28" value="201:&lt;div&gt;Created&lt;/div&gt;" style="strokeWidth=2;html=1;shape=mxgraph.flowchart.terminator;whiteSpace=wrap;" vertex="1" parent="KsU-oVDJiNAYJk19QjAR-108">
          <mxGeometry x="840" y="51" width="100" height="60" as="geometry" />
        </mxCell>
        <mxCell id="HGcjKGALSTUR5RTaQ5zP-29" value="Prepare&lt;br&gt;success&lt;br&gt;response" style="rounded=1;whiteSpace=wrap;html=1;absoluteArcSize=1;arcSize=14;strokeWidth=2;shadow=0;glass=0;sketch=0;gradientColor=none;" vertex="1" parent="KsU-oVDJiNAYJk19QjAR-108">
          <mxGeometry x="855" y="367.5" width="70" height="75" as="geometry" />
        </mxCell>
        <mxCell id="HGcjKGALSTUR5RTaQ5zP-31" style="edgeStyle=orthogonalEdgeStyle;rounded=0;orthogonalLoop=1;jettySize=auto;html=1;entryX=0.5;entryY=1;entryDx=0;entryDy=0;entryPerimeter=0;" edge="1" parent="KsU-oVDJiNAYJk19QjAR-108" source="HGcjKGALSTUR5RTaQ5zP-29" target="HGcjKGALSTUR5RTaQ5zP-28">
          <mxGeometry relative="1" as="geometry">
            <mxPoint x="402" y="180" as="targetPoint" />
          </mxGeometry>
        </mxCell>
        <mxCell id="HGcjKGALSTUR5RTaQ5zP-47" value="400:&lt;div&gt;Bad Request&lt;/div&gt;" style="strokeWidth=2;html=1;shape=mxgraph.flowchart.terminator;whiteSpace=wrap;" vertex="1" parent="KsU-oVDJiNAYJk19QjAR-108">
          <mxGeometry x="520" y="51" width="100" height="60" as="geometry" />
        </mxCell>
        <mxCell id="KsU-oVDJiNAYJk19QjAR-109" value="Authorization" style="shape=tableRow;horizontal=0;swimlaneHead=0;swimlaneBody=0;top=0;left=0;strokeColor=inherit;bottom=0;right=0;dropTarget=0;fontStyle=0;fillColor=none;points=[[0,0.5],[1,0.5]];portConstraint=eastwest;startSize=40;collapsible=0;recursiveResize=0;expand=0;" parent="KsU-oVDJiNAYJk19QjAR-104" vertex="1">
          <mxGeometry y="202" width="1020" height="162" as="geometry" />
        </mxCell>
        <mxCell id="KsU-oVDJiNAYJk19QjAR-110" value="" style="swimlane;swimlaneHead=0;swimlaneBody=0;fontStyle=0;connectable=0;strokeColor=inherit;fillColor=none;startSize=0;collapsible=0;recursiveResize=0;expand=0;" parent="KsU-oVDJiNAYJk19QjAR-109" vertex="1">
          <mxGeometry x="40" width="980" height="162" as="geometry">
            <mxRectangle width="980" height="162" as="alternateBounds" />
          </mxGeometry>
        </mxCell>
        <mxCell id="KsU-oVDJiNAYJk19QjAR-119" value="API Endpoint" style="shape=tableRow;horizontal=0;swimlaneHead=0;swimlaneBody=0;top=0;left=0;strokeColor=inherit;bottom=0;right=0;dropTarget=0;fontStyle=0;fillColor=none;points=[[0,0.5],[1,0.5]];portConstraint=eastwest;startSize=40;collapsible=0;recursiveResize=0;expand=0;" parent="KsU-oVDJiNAYJk19QjAR-104" vertex="1">
          <mxGeometry y="364" width="1020" height="162" as="geometry" />
        </mxCell>
        <mxCell id="KsU-oVDJiNAYJk19QjAR-120" style="swimlane;swimlaneHead=0;swimlaneBody=0;fontStyle=0;connectable=0;strokeColor=inherit;fillColor=none;startSize=0;collapsible=0;recursiveResize=0;expand=0;" parent="KsU-oVDJiNAYJk19QjAR-119" vertex="1">
          <mxGeometry x="40" width="980" height="162" as="geometry">
            <mxRectangle width="980" height="162" as="alternateBounds" />
          </mxGeometry>
        </mxCell>
        <mxCell id="HGcjKGALSTUR5RTaQ5zP-1" value="validate&lt;div&gt;request&lt;/div&gt;&lt;div&gt;payload&lt;/div&gt;" style="strokeWidth=2;html=1;shape=mxgraph.flowchart.decision;whiteSpace=wrap;" vertex="1" parent="KsU-oVDJiNAYJk19QjAR-120">
          <mxGeometry x="30" y="31" width="100" height="100" as="geometry" />
        </mxCell>
        <mxCell id="HGcjKGALSTUR5RTaQ5zP-36" value="Prepare&lt;br&gt;failure&lt;div&gt;response&lt;/div&gt;" style="rounded=1;whiteSpace=wrap;html=1;absoluteArcSize=1;arcSize=14;strokeWidth=2;shadow=0;glass=0;sketch=0;gradientColor=none;" vertex="1" parent="KsU-oVDJiNAYJk19QjAR-120">
          <mxGeometry x="367" y="43.5" width="70" height="75" as="geometry" />
        </mxCell>
        <mxCell id="HGcjKGALSTUR5RTaQ5zP-44" value="" style="edgeStyle=orthogonalEdgeStyle;rounded=0;orthogonalLoop=1;jettySize=auto;html=1;" edge="1" parent="KsU-oVDJiNAYJk19QjAR-120" source="HGcjKGALSTUR5RTaQ5zP-41" target="HGcjKGALSTUR5RTaQ5zP-43">
          <mxGeometry relative="1" as="geometry" />
        </mxCell>
        <mxCell id="HGcjKGALSTUR5RTaQ5zP-46" value="YES" style="edgeLabel;html=1;align=center;verticalAlign=middle;resizable=0;points=[];" vertex="1" connectable="0" parent="HGcjKGALSTUR5RTaQ5zP-44">
          <mxGeometry x="-0.0464" relative="1" as="geometry">
            <mxPoint as="offset" />
          </mxGeometry>
        </mxCell>
        <mxCell id="HGcjKGALSTUR5RTaQ5zP-41" value="&lt;div&gt;geo&lt;/div&gt;&lt;div&gt;credential?&lt;br&gt;&lt;/div&gt;" style="rhombus;whiteSpace=wrap;html=1;strokeWidth=2;" vertex="1" parent="KsU-oVDJiNAYJk19QjAR-120">
          <mxGeometry x="530" y="41" width="80" height="80" as="geometry" />
        </mxCell>
        <mxCell id="HGcjKGALSTUR5RTaQ5zP-43" value="correct&lt;div&gt;otp?&lt;/div&gt;" style="rhombus;whiteSpace=wrap;html=1;strokeWidth=2;" vertex="1" parent="KsU-oVDJiNAYJk19QjAR-120">
          <mxGeometry x="690" y="41" width="80" height="80" as="geometry" />
        </mxCell>
        <mxCell id="KsU-oVDJiNAYJk19QjAR-117" value="Data Access Layer" style="shape=tableRow;horizontal=0;swimlaneHead=0;swimlaneBody=0;top=0;left=0;strokeColor=inherit;bottom=0;right=0;dropTarget=0;fontStyle=0;fillColor=none;points=[[0,0.5],[1,0.5]];portConstraint=eastwest;startSize=40;collapsible=0;recursiveResize=0;expand=0;" parent="KsU-oVDJiNAYJk19QjAR-104" vertex="1">
          <mxGeometry y="526" width="1020" height="162" as="geometry" />
        </mxCell>
        <mxCell id="KsU-oVDJiNAYJk19QjAR-118" style="swimlane;swimlaneHead=0;swimlaneBody=0;fontStyle=0;connectable=0;strokeColor=inherit;fillColor=none;startSize=0;collapsible=0;recursiveResize=0;expand=0;" parent="KsU-oVDJiNAYJk19QjAR-117" vertex="1">
          <mxGeometry x="40" width="980" height="162" as="geometry">
            <mxRectangle width="980" height="162" as="alternateBounds" />
          </mxGeometry>
        </mxCell>
        <mxCell id="HGcjKGALSTUR5RTaQ5zP-10" style="edgeStyle=orthogonalEdgeStyle;rounded=0;orthogonalLoop=1;jettySize=auto;html=1;" edge="1" parent="KsU-oVDJiNAYJk19QjAR-118" source="Q2JHpyXK3tvcLyVBupTh-17" target="HGcjKGALSTUR5RTaQ5zP-7">
          <mxGeometry relative="1" as="geometry" />
        </mxCell>
        <mxCell id="Q2JHpyXK3tvcLyVBupTh-17" value="fetch&lt;div&gt;auth&lt;/div&gt;&lt;div&gt;ticket&lt;/div&gt;" style="rounded=1;whiteSpace=wrap;html=1;absoluteArcSize=1;arcSize=14;strokeWidth=2;shadow=0;glass=0;sketch=0;gradientColor=none;" parent="KsU-oVDJiNAYJk19QjAR-118" vertex="1">
          <mxGeometry x="45" y="44" width="70" height="75" as="geometry" />
        </mxCell>
        <mxCell id="HGcjKGALSTUR5RTaQ5zP-7" value="auth&lt;div&gt;ticket&lt;/div&gt;&lt;div&gt;details?&lt;/div&gt;" style="strokeWidth=2;html=1;shape=mxgraph.flowchart.decision;whiteSpace=wrap;" vertex="1" parent="KsU-oVDJiNAYJk19QjAR-118">
          <mxGeometry x="352" y="31.5" width="100" height="100" as="geometry" />
        </mxCell>
        <mxCell id="HGcjKGALSTUR5RTaQ5zP-52" value="delete&lt;div&gt;auth&lt;/div&gt;&lt;div&gt;ticket&lt;/div&gt;" style="rounded=1;whiteSpace=wrap;html=1;absoluteArcSize=1;arcSize=14;strokeWidth=2;shadow=0;glass=0;sketch=0;gradientColor=none;" vertex="1" parent="KsU-oVDJiNAYJk19QjAR-118">
          <mxGeometry x="855" y="44" width="70" height="75" as="geometry" />
        </mxCell>
        <mxCell id="KsU-oVDJiNAYJk19QjAR-121" value="Database" style="shape=tableRow;horizontal=0;swimlaneHead=0;swimlaneBody=0;top=0;left=0;strokeColor=inherit;bottom=0;right=0;dropTarget=0;fontStyle=0;fillColor=none;points=[[0,0.5],[1,0.5]];portConstraint=eastwest;startSize=40;collapsible=0;recursiveResize=0;expand=0;" parent="KsU-oVDJiNAYJk19QjAR-104" vertex="1">
          <mxGeometry y="688" width="1020" height="162" as="geometry" />
        </mxCell>
        <mxCell id="KsU-oVDJiNAYJk19QjAR-122" style="swimlane;swimlaneHead=0;swimlaneBody=0;fontStyle=0;connectable=0;strokeColor=inherit;fillColor=none;startSize=0;collapsible=0;recursiveResize=0;expand=0;" parent="KsU-oVDJiNAYJk19QjAR-121" vertex="1">
          <mxGeometry x="40" width="980" height="162" as="geometry">
            <mxRectangle width="980" height="162" as="alternateBounds" />
          </mxGeometry>
        </mxCell>
        <mxCell id="ZfSD3USpCY6e5y5g9DAe-2" value="&lt;br&gt;DB" style="strokeWidth=2;html=1;shape=mxgraph.flowchart.database;whiteSpace=wrap;rounded=0;shadow=0;glass=0;sketch=0;gradientColor=none;" parent="KsU-oVDJiNAYJk19QjAR-122" vertex="1">
          <mxGeometry x="50" y="41" width="60" height="80" as="geometry" />
        </mxCell>
        <mxCell id="ZfSD3USpCY6e5y5g9DAe-6" style="edgeStyle=orthogonalEdgeStyle;rounded=0;orthogonalLoop=1;jettySize=auto;html=1;" parent="KsU-oVDJiNAYJk19QjAR-104" source="Q2JHpyXK3tvcLyVBupTh-17" target="ZfSD3USpCY6e5y5g9DAe-2" edge="1">
          <mxGeometry relative="1" as="geometry" />
        </mxCell>
        <mxCell id="HGcjKGALSTUR5RTaQ5zP-3" style="edgeStyle=orthogonalEdgeStyle;rounded=0;orthogonalLoop=1;jettySize=auto;html=1;entryX=0.5;entryY=1;entryDx=0;entryDy=0;entryPerimeter=0;" edge="1" parent="KsU-oVDJiNAYJk19QjAR-104" source="HGcjKGALSTUR5RTaQ5zP-1" target="HGcjKGALSTUR5RTaQ5zP-2">
          <mxGeometry relative="1" as="geometry" />
        </mxCell>
        <mxCell id="HGcjKGALSTUR5RTaQ5zP-6" value="NO" style="edgeLabel;html=1;align=center;verticalAlign=middle;resizable=0;points=[];" vertex="1" connectable="0" parent="HGcjKGALSTUR5RTaQ5zP-3">
          <mxGeometry x="-0.0574" y="-2" relative="1" as="geometry">
            <mxPoint as="offset" />
          </mxGeometry>
        </mxCell>
        <mxCell id="HGcjKGALSTUR5RTaQ5zP-4" style="edgeStyle=orthogonalEdgeStyle;rounded=0;orthogonalLoop=1;jettySize=auto;html=1;entryX=0.5;entryY=0;entryDx=0;entryDy=0;exitX=0.5;exitY=1;exitDx=0;exitDy=0;exitPerimeter=0;" edge="1" parent="KsU-oVDJiNAYJk19QjAR-104" source="HGcjKGALSTUR5RTaQ5zP-1" target="Q2JHpyXK3tvcLyVBupTh-17">
          <mxGeometry relative="1" as="geometry" />
        </mxCell>
        <mxCell id="HGcjKGALSTUR5RTaQ5zP-5" value="YES" style="edgeLabel;html=1;align=center;verticalAlign=middle;resizable=0;points=[];" vertex="1" connectable="0" parent="HGcjKGALSTUR5RTaQ5zP-4">
          <mxGeometry x="-0.0604" y="-2" relative="1" as="geometry">
            <mxPoint as="offset" />
          </mxGeometry>
        </mxCell>
        <mxCell id="HGcjKGALSTUR5RTaQ5zP-20" style="edgeStyle=orthogonalEdgeStyle;rounded=0;orthogonalLoop=1;jettySize=auto;html=1;entryX=0.5;entryY=0;entryDx=0;entryDy=0;entryPerimeter=0;" edge="1" parent="KsU-oVDJiNAYJk19QjAR-104" source="Q2JHpyXK3tvcLyVBupTh-7" target="HGcjKGALSTUR5RTaQ5zP-1">
          <mxGeometry relative="1" as="geometry">
            <mxPoint x="112" y="390" as="targetPoint" />
          </mxGeometry>
        </mxCell>
        <mxCell id="HGcjKGALSTUR5RTaQ5zP-37" style="edgeStyle=orthogonalEdgeStyle;rounded=0;orthogonalLoop=1;jettySize=auto;html=1;entryX=0.5;entryY=1;entryDx=0;entryDy=0;" edge="1" parent="KsU-oVDJiNAYJk19QjAR-104" source="HGcjKGALSTUR5RTaQ5zP-7" target="HGcjKGALSTUR5RTaQ5zP-36">
          <mxGeometry relative="1" as="geometry" />
        </mxCell>
        <mxCell id="HGcjKGALSTUR5RTaQ5zP-56" value="NO" style="edgeLabel;html=1;align=center;verticalAlign=middle;resizable=0;points=[];" vertex="1" connectable="0" parent="HGcjKGALSTUR5RTaQ5zP-37">
          <mxGeometry x="-0.0978" y="1" relative="1" as="geometry">
            <mxPoint as="offset" />
          </mxGeometry>
        </mxCell>
        <mxCell id="HGcjKGALSTUR5RTaQ5zP-39" style="edgeStyle=orthogonalEdgeStyle;rounded=0;orthogonalLoop=1;jettySize=auto;html=1;" edge="1" parent="KsU-oVDJiNAYJk19QjAR-104" source="HGcjKGALSTUR5RTaQ5zP-36" target="HGcjKGALSTUR5RTaQ5zP-38">
          <mxGeometry relative="1" as="geometry" />
        </mxCell>
        <mxCell id="HGcjKGALSTUR5RTaQ5zP-42" value="" style="edgeStyle=orthogonalEdgeStyle;rounded=0;orthogonalLoop=1;jettySize=auto;html=1;" edge="1" parent="KsU-oVDJiNAYJk19QjAR-104" source="HGcjKGALSTUR5RTaQ5zP-7" target="HGcjKGALSTUR5RTaQ5zP-41">
          <mxGeometry relative="1" as="geometry" />
        </mxCell>
        <mxCell id="HGcjKGALSTUR5RTaQ5zP-55" value="YES" style="edgeLabel;html=1;align=center;verticalAlign=middle;resizable=0;points=[];" vertex="1" connectable="0" parent="HGcjKGALSTUR5RTaQ5zP-42">
          <mxGeometry x="0.4169" y="-3" relative="1" as="geometry">
            <mxPoint as="offset" />
          </mxGeometry>
        </mxCell>
        <mxCell id="HGcjKGALSTUR5RTaQ5zP-45" value="YES" style="edgeStyle=orthogonalEdgeStyle;rounded=0;orthogonalLoop=1;jettySize=auto;html=1;entryX=0;entryY=0.5;entryDx=0;entryDy=0;" edge="1" parent="KsU-oVDJiNAYJk19QjAR-104" source="HGcjKGALSTUR5RTaQ5zP-43" target="HGcjKGALSTUR5RTaQ5zP-52">
          <mxGeometry relative="1" as="geometry">
            <Array as="points">
              <mxPoint x="770" y="607" />
            </Array>
          </mxGeometry>
        </mxCell>
        <mxCell id="HGcjKGALSTUR5RTaQ5zP-48" style="edgeStyle=orthogonalEdgeStyle;rounded=0;orthogonalLoop=1;jettySize=auto;html=1;entryX=0.5;entryY=1;entryDx=0;entryDy=0;entryPerimeter=0;" edge="1" parent="KsU-oVDJiNAYJk19QjAR-104" source="HGcjKGALSTUR5RTaQ5zP-41" target="HGcjKGALSTUR5RTaQ5zP-47">
          <mxGeometry relative="1" as="geometry">
            <mxPoint x="610" y="170" as="targetPoint" />
          </mxGeometry>
        </mxCell>
        <mxCell id="HGcjKGALSTUR5RTaQ5zP-50" value="NO" style="edgeLabel;html=1;align=center;verticalAlign=middle;resizable=0;points=[];" vertex="1" connectable="0" parent="HGcjKGALSTUR5RTaQ5zP-48">
          <mxGeometry x="-0.0596" y="-1" relative="1" as="geometry">
            <mxPoint as="offset" />
          </mxGeometry>
        </mxCell>
        <mxCell id="HGcjKGALSTUR5RTaQ5zP-49" style="edgeStyle=orthogonalEdgeStyle;rounded=0;orthogonalLoop=1;jettySize=auto;html=1;entryX=1;entryY=0.5;entryDx=0;entryDy=0;entryPerimeter=0;" edge="1" parent="KsU-oVDJiNAYJk19QjAR-104" source="HGcjKGALSTUR5RTaQ5zP-43" target="HGcjKGALSTUR5RTaQ5zP-47">
          <mxGeometry relative="1" as="geometry">
            <mxPoint x="760" y="210" as="targetPoint" />
            <Array as="points">
              <mxPoint x="770" y="121" />
            </Array>
          </mxGeometry>
        </mxCell>
        <mxCell id="HGcjKGALSTUR5RTaQ5zP-51" value="NO" style="edgeLabel;html=1;align=center;verticalAlign=middle;resizable=0;points=[];" vertex="1" connectable="0" parent="HGcjKGALSTUR5RTaQ5zP-49">
          <mxGeometry x="-0.3985" relative="1" as="geometry">
            <mxPoint as="offset" />
          </mxGeometry>
        </mxCell>
        <mxCell id="HGcjKGALSTUR5RTaQ5zP-53" style="edgeStyle=orthogonalEdgeStyle;rounded=0;orthogonalLoop=1;jettySize=auto;html=1;entryX=1;entryY=0.5;entryDx=0;entryDy=0;entryPerimeter=0;" edge="1" parent="KsU-oVDJiNAYJk19QjAR-104" source="HGcjKGALSTUR5RTaQ5zP-52" target="ZfSD3USpCY6e5y5g9DAe-2">
          <mxGeometry relative="1" as="geometry">
            <Array as="points">
              <mxPoint x="925" y="770" />
              <mxPoint x="520" y="770" />
              <mxPoint x="520" y="769" />
            </Array>
          </mxGeometry>
        </mxCell>
        <mxCell id="HGcjKGALSTUR5RTaQ5zP-54" style="edgeStyle=orthogonalEdgeStyle;rounded=0;orthogonalLoop=1;jettySize=auto;html=1;entryX=0.5;entryY=1;entryDx=0;entryDy=0;" edge="1" parent="KsU-oVDJiNAYJk19QjAR-104" source="HGcjKGALSTUR5RTaQ5zP-52" target="HGcjKGALSTUR5RTaQ5zP-29">
          <mxGeometry relative="1" as="geometry" />
        </mxCell>
      </root>
    </mxGraphModel>
  </diagram>
</mxfile>
